<svg width="18" height="18" viewBox="0 0 22 18" fill="none" xmlns="http://www.w3.org/2000/svg"><path d="M20.0664 0H1.93359C0.868742 0 0 0.932123 0 2.07692V15.9231C0 17.064 0.864875 18 1.93359 18H20.0664C21.1286 18 22 17.071 22 15.9231V2.07692C22 0.936 21.1351 0 20.0664 0ZM19.7994 1.38462L11.041 10.7923L2.20683 1.38462H19.7994ZM1.28906 15.6364V2.35703L7.49714 8.96811L1.28906 15.6364ZM2.20056 16.6154L8.41255 9.94292L10.5892 12.2609C10.8412 12.5292 11.2478 12.5283 11.4987 12.2587L13.6211 9.97906L19.7994 16.6154H2.20056ZM20.7109 15.6363L14.5326 9L20.7109 2.36363V15.6363Z" fill="#49b850"></path></svg>