<svg width="18" height="18" viewBox="0 0 24 24" fill="none" xmlns="http://www.w3.org/2000/svg">
<path d="M22.217 17.8008L19.2472 14.7277C19.2444 14.7249 19.2416 14.722 19.2388 14.7192C18.4144 13.8948 17.0803 13.8947 16.2559 14.7192L14.9 16.0752C14.2755 16.6997 13.2648 16.6998 12.6403 16.0752C12.64 16.0749 12.6397 16.0746 12.6394 16.0743L7.92411 11.4702C7.29964 10.8457 7.29954 9.83483 7.92411 9.21027L9.27997 7.85431C10.1024 7.03187 10.1024 5.69363 9.27997 4.87119L6.29707 1.88808C5.47465 1.06569 4.13655 1.06569 3.31418 1.88808C3.3139 1.88836 2.31968 2.8827 2.31991 2.88242C2.31968 2.8827 2.22977 2.97257 2.22954 2.97285C-0.742718 5.94527 -0.743796 10.7566 2.23 13.7306L10.3805 21.7701C13.3461 24.736 18.149 24.7471 21.1265 21.7806C21.1428 21.7655 22.1966 20.7949 22.2123 20.7792C23.033 19.9583 23.0346 18.6237 22.217 17.8008ZM4.30849 2.88242C4.58262 2.60827 5.02863 2.60827 5.30276 2.88242L8.28565 5.86553C8.56043 6.14038 8.56048 6.58507 8.28565 6.85992L7.78854 7.35707L3.81133 3.37961L4.30849 2.88242ZM11.3743 20.7753L3.2238 12.7358C0.927019 10.4388 0.818081 6.81665 2.83582 4.39275L6.79906 8.35628C5.76101 9.53485 5.80418 11.3388 6.93068 12.4654L11.6468 17.0704C12.774 18.1968 14.5721 18.2431 15.754 17.2004L19.7169 21.1636C17.2693 23.1969 13.6693 23.0704 11.3743 20.7753ZM21.2263 19.7763L20.7538 20.2118L16.753 16.2107L17.2501 15.7135C17.524 15.4397 17.9661 15.4388 18.2409 15.71C18.2464 15.7157 21.2124 18.7848 21.218 18.7904C21.4893 19.0618 21.4921 19.5015 21.2263 19.7763Z" fill="#49b850"></path><path d="M12.0478 0C11.6595 0 11.3447 0.314836 11.3447 0.703131C11.3447 1.09143 11.6595 1.40626 12.0478 1.40626C17.8629 1.40626 22.5938 6.13757 22.5938 11.9531C22.5938 12.3414 22.9087 12.6563 23.2969 12.6563C23.6852 12.6563 24 12.3415 24 11.9531C24 5.34659 18.6543 0 12.0478 0Z" fill="#49b850"></path><path d="M12.0478 2.81248C11.6595 2.81248 11.3447 3.12731 11.3447 3.51561C11.3447 3.9039 11.6595 4.21874 12.0478 4.21874C16.3122 4.21874 19.7816 7.68836 19.7816 11.9531C19.7816 12.3414 20.0964 12.6563 20.4847 12.6563C20.8729 12.6563 21.1877 12.3415 21.1877 11.9531C21.1877 6.91299 17.0875 2.81248 12.0478 2.81248Z" fill="#49b850"></path><path d="M12.0478 5.625C11.6595 5.625 11.3447 5.93983 11.3447 6.32813C11.3447 6.71642 11.6595 7.03126 12.0478 7.03126C14.7615 7.03126 16.9693 9.23919 16.9693 11.9531C16.9693 12.3414 17.2841 12.6563 17.6723 12.6563C18.0606 12.6563 18.3754 12.3415 18.3754 11.9531C18.3754 8.46377 15.5368 5.625 12.0478 5.625Z" fill="#49b850"></path><path d="M12.0478 8.43747C11.6595 8.43747 11.3447 8.75231 11.3447 9.1406C11.3447 9.5289 11.6595 9.84373 12.0478 9.84373C13.2108 9.84373 14.157 10.79 14.157 11.9531C14.157 12.3414 14.4718 12.6563 14.8601 12.6563C15.2483 12.6563 15.5631 12.3415 15.5631 11.9531C15.5631 10.0146 13.9861 8.43747 12.0478 8.43747Z" fill="#49b850"></path></svg>